<svg xmlns="http://www.w3.org/2000/svg" version="1.1" xmlns:xlink="http://www.w3.org/1999/xlink" width="200" height="200"><svg xmlns="http://www.w3.org/2000/svg" version="1.1" xmlns:xlink="http://www.w3.org/1999/xlink" width="200" height="200"><svg xmlns="http://www.w3.org/2000/svg" version="1.1" xmlns:xlink="http://www.w3.org/1999/xlink" viewBox="0 0 200 200"><rect width="200" height="200" fill="url('#gradient')"></rect><defs><linearGradient id="gradient" gradientTransform="rotate(45 0.5 0.5)"><stop offset="0%" stop-color="#353664"></stop><stop offset="100%" stop-color="#211c36"></stop></linearGradient></defs><g><g fill="#055c04" transform="matrix(3.694527961515334,0,0,3.694527961515334,5.566345232477829,126.25399493310944)" stroke="#a8dc9f" stroke-width="0.2"><path d="M18.45-7.47L18.45-6.82Q18.45-4.74 17.68-3.13Q16.90-1.53 15.48-0.67Q14.06 0.20 12.25 0.20L12.25 0.20Q10.61 0.20 9.29-0.49Q7.98-1.17 7.15-2.47Q6.32-3.76 6.09-5.48L6.09-5.48L4.62-5.48L4.62 0L1.20 0L1.20-14.22L4.62-14.22L4.62-8.03L6.03-8.03Q6.14-9.95 6.94-11.41Q7.73-12.86 9.11-13.64Q10.49-14.41 12.23-14.41L12.23-14.41Q14.03-14.41 15.45-13.55Q16.87-12.70 17.65-11.11Q18.44-9.52 18.45-7.47L18.45-7.47ZM14.96-6.76L14.96-7.41Q14.96-9.53 14.25-10.63Q13.54-11.73 12.23-11.73L12.23-11.73Q9.65-11.73 9.50-7.86L9.50-7.86L9.49-6.82Q9.49-4.73 10.19-3.60Q10.88-2.48 12.25-2.48L12.25-2.48Q13.54-2.48 14.25-3.58Q14.95-4.69 14.96-6.76L14.96-6.76ZM32.40-14.22L32.40 0L28.99 0L28.99-5.94L23.95-5.94L23.95 0L20.52 0L20.52-14.22L23.95-14.22L23.95-8.57L28.99-8.57L28.99-14.22L32.40-14.22ZM34.57-14.22L39.07-14.22L42.25-4.33L45.41-14.22L49.92-14.22L49.92 0L46.48 0L46.48-3.32L46.82-10.12L43.38 0L41.11 0L37.67-10.13L38.00-3.32L38.00 0L34.57 0L34.57-14.22Z"></path></g></g></svg></svg><style>@media (prefers-color-scheme: light) { :root { filter: none; } }
@media (prefers-color-scheme: dark) { :root { filter: none; } }
</style></svg>